AT RISK 2010 DVDRip XviD

Format : AVI
Format/Info : Audio Video Interleave
File size : 568 MiB
Duration : 1h 30mn
Overall bit rate : 875 Kbps
Writing application : MEncoder SVN-r29352(20090610-gcc4.3.3)
Writing library : MPlayer

Video
ID : 0
Format : MPEG-4 Visual
Format profile : AdvancedSimple@L5
Format settings, BVOP : Yes
Format settings, QPel : No
Format settings, GMC : No warppoints
Format settings, Matrix : Default (H.263)
Codec ID : XVID
Codec ID/Hint : XviD
Duration : 1h 30mn
Bit rate : 735 Kbps
Width : 640 pixels
Height : 360 pixels
Display aspect ratio : 16:9
Frame rate : 25.000 fps
Resolution : 24 bits
Colorimetry : 4:2:0
Scan type : Progressive
Bits/(Pixel*Frame) : 0.128
Stream size : 477 MiB (84%)
Writing library : XviD 1.2.1 (UTC 2008-12-04)

Audio
ID : 1
Format : MPEG Audio
Format version : Version 1
Format profile : Layer 3
Codec ID : 55
Codec ID/Hint : MP3
Duration : 1h 30mn
Bit rate mode : Constant
Bit rate : 128 Kbps
Channel(s) : 2 channels
Sampling rate : 44.1 KHz
Resolution : 16 bits
Video delay : 40ms
Stream size : 83.0 MiB (15%)
Alignment : Aligned on interleaves
Interleave, duration : 26 ms (0.65 video frame)
Interleave, preload duration : 522 ms
Writing library : LAME3.98

A best-selling crime writer wants to further her political dreams by solving an old murder.
A Boston detective is dispatched to Tennessee by his glamorous district attorney to crack a cold case that froze up two decades prior. District Attorney Monique Lamont (Andie MacDowell) is climbing the ladder to political success when she determines that the best way to advance her career is to solve an impossible crime. In order to catch a killer, Lamont recruits Win Garano (Daniel Sunjata), a detective with a penchant for getting results. Reluctantly accepting, Garano follows the trail of evidence to Knoxville, where he and his partner, Sykes (Annabeth Gish), realize that nothing is as it seems. 
http://www.imdb.com/title/tt1492723/

PLEASE SEED AND ENJOY THANKS

screen shots 
http://img813.imageshack.us/img813/7416/vlcsnap00001.png 
http://img51.imageshack.us/img51/3526/vlcsnap00003k.png 
http://img822.imageshack.us/img822/3962/vlcsnap00006c.png 
http://img31.imageshack.us/img31/4978/vlcsnap00007b.png